<svg width="73" height="20" viewBox="0 0 73 20" fill="none" xmlns="http://www.w3.org/2000/svg">
<path d="M0.824926 14V3.89466H3.65592L4.4621 5.30078C4.76207 4.88832 5.10579 4.52585 5.49326 4.21338C5.89322 3.90091 6.37443 3.74467 6.93688 3.74467C7.03687 3.74467 7.15561 3.75092 7.29309 3.76342C7.43058 3.77592 7.56182 3.80092 7.68681 3.83841V7.56933C7.47433 7.54433 7.2556 7.52558 7.03062 7.51308C6.81814 7.50058 6.6244 7.49434 6.44942 7.49434C6.14945 7.49434 5.87447 7.52558 5.62449 7.58808C5.37452 7.63807 5.14954 7.71931 4.94955 7.8318C4.76207 7.94429 4.59959 8.09428 4.4621 8.28176V14H0.824926ZM13.5117 14.0937C12.3618 14.0937 11.4369 13.95 10.7369 13.6625C10.037 13.3751 9.52453 12.8626 9.19956 12.1252C8.88709 11.3752 8.73085 10.3253 8.73085 8.97545C8.73085 7.58808 8.87459 6.51942 9.16207 5.76949C9.44954 5.00706 9.9245 4.47586 10.5869 4.17588C11.2619 3.87591 12.1805 3.72592 13.3429 3.72592C14.4178 3.72592 15.2678 3.82591 15.8927 4.0259C16.5177 4.22588 16.9614 4.58835 17.2238 5.1133C17.4988 5.62575 17.6363 6.35694 17.6363 7.30685C17.6363 8.04429 17.4926 8.62548 17.2051 9.05045C16.9176 9.46291 16.5114 9.75663 15.9865 9.93162C15.4615 10.1066 14.8428 10.1941 14.1304 10.1941H12.3305C12.368 10.4941 12.443 10.7378 12.5555 10.9253C12.668 11.1003 12.8742 11.2252 13.1742 11.3002C13.4742 11.3752 13.9179 11.4127 14.5053 11.4127H17.2613V13.5313C16.8239 13.6563 16.2989 13.7813 15.6865 13.9063C15.0865 14.0312 14.3616 14.0937 13.5117 14.0937ZM12.293 8.07553H13.7367C13.9866 8.07553 14.1679 8.01929 14.2804 7.9068C14.3928 7.79431 14.4491 7.60058 14.4491 7.3256C14.4491 7.08812 14.4116 6.89439 14.3366 6.7444C14.2616 6.59442 14.1429 6.48818 13.9804 6.42568C13.8179 6.35069 13.6054 6.31319 13.3429 6.31319C13.1055 6.31319 12.9055 6.36319 12.743 6.46318C12.593 6.56317 12.4805 6.7444 12.4055 7.00688C12.3305 7.25686 12.293 7.61307 12.293 8.07553ZM21.3933 14L18.2811 3.89466H22.0307L23.5681 10.6441L25.1805 3.89466H28.8926L25.5929 14H21.3933ZM34.1328 14.0937C32.9829 14.0937 32.058 13.95 31.358 13.6625C30.6581 13.3751 30.1456 12.8626 29.8207 12.1252C29.5082 11.3752 29.352 10.3253 29.352 8.97545C29.352 7.58808 29.4957 6.51942 29.7832 5.76949C30.0706 5.00706 30.5456 4.47586 31.208 4.17588C31.883 3.87591 32.8016 3.72592 33.964 3.72592C35.0389 3.72592 35.8889 3.82591 36.5138 4.0259C37.1388 4.22588 37.5825 4.58835 37.8449 5.1133C38.1199 5.62575 38.2574 6.35694 38.2574 7.30685C38.2574 8.04429 38.1137 8.62548 37.8262 9.05045C37.5387 9.46291 37.1325 9.75663 36.6075 9.93162C36.0826 10.1066 35.4639 10.1941 34.7515 10.1941H32.9516C32.9891 10.4941 33.0641 10.7378 33.1766 10.9253C33.2891 11.1003 33.4953 11.2252 33.7953 11.3002C34.0953 11.3752 34.539 11.4127 35.1264 11.4127H37.8824V13.5313C37.445 13.6563 36.92 13.7813 36.3076 13.9063C35.7076 14.0312 34.9827 14.0937 34.1328 14.0937ZM32.9141 8.07553H34.3578C34.6077 8.07553 34.789 8.01929 34.9015 7.9068C35.0139 7.79431 35.0702 7.60058 35.0702 7.3256C35.0702 7.08812 35.0327 6.89439 34.9577 6.7444C34.8827 6.59442 34.764 6.48818 34.6015 6.42568C34.439 6.35069 34.2265 6.31319 33.964 6.31319C33.7266 6.31319 33.5266 6.36319 33.3641 6.46318C33.2141 6.56317 33.1016 6.7444 33.0266 7.00688C32.9516 7.25686 32.9141 7.61307 32.9141 8.07553ZM39.7602 14V3.89466H42.5912L43.3974 5.30078C43.6973 4.88832 44.0411 4.52585 44.4285 4.21338C44.8285 3.90091 45.3097 3.74467 45.8721 3.74467C45.9721 3.74467 46.0909 3.75092 46.2284 3.76342C46.3659 3.77592 46.4971 3.80092 46.6221 3.83841V7.56933C46.4096 7.54433 46.1909 7.52558 45.9659 7.51308C45.7534 7.50058 45.5597 7.49434 45.3847 7.49434C45.0847 7.49434 44.8097 7.52558 44.5598 7.58808C44.3098 7.63807 44.0848 7.71931 43.8848 7.8318C43.6973 7.94429 43.5349 8.09428 43.3974 8.28176V14H39.7602ZM50.3659 14L47.2537 3.89466H51.0033L52.5407 10.6441L54.153 3.89466H57.8652L54.5655 14H50.3659ZM63.1054 14.0937C61.9555 14.0937 61.0305 13.95 60.3306 13.6625C59.6307 13.3751 59.1182 12.8626 58.7932 12.1252C58.4808 11.3752 58.3245 10.3253 58.3245 8.97545C58.3245 7.58808 58.4683 6.51942 58.7558 5.76949C59.0432 5.00706 59.5182 4.47586 60.1806 4.17588C60.8556 3.87591 61.7742 3.72592 62.9366 3.72592C64.0115 3.72592 64.8615 3.82591 65.4864 4.0259C66.1113 4.22588 66.5551 4.58835 66.8175 5.1133C67.0925 5.62575 67.23 6.35694 67.23 7.30685C67.23 8.04429 67.0863 8.62548 66.7988 9.05045C66.5113 9.46291 66.1051 9.75663 65.5801 9.93162C65.0552 10.1066 64.4365 10.1941 63.7241 10.1941H61.9242C61.9617 10.4941 62.0367 10.7378 62.1492 10.9253C62.2617 11.1003 62.4679 11.2252 62.7679 11.3002C63.0679 11.3752 63.5116 11.4127 64.099 11.4127H66.855V13.5313C66.4176 13.6563 65.8926 13.7813 65.2802 13.9063C64.6802 14.0312 63.9553 14.0937 63.1054 14.0937ZM61.8867 8.07553H63.3303C63.5803 8.07553 63.7616 8.01929 63.874 7.9068C63.9865 7.79431 64.0428 7.60058 64.0428 7.3256C64.0428 7.08812 64.0053 6.89439 63.9303 6.7444C63.8553 6.59442 63.7366 6.48818 63.5741 6.42568C63.4116 6.35069 63.1991 6.31319 62.9366 6.31319C62.6991 6.31319 62.4992 6.36319 62.3367 6.46318C62.1867 6.56317 62.0742 6.7444 61.9992 7.00688C61.9242 7.25686 61.8867 7.61307 61.8867 8.07553Z" fill="black"/>
<path d="M17.6983 18.3959V15.8065H18.4766L18.6303 16.0563C18.7328 15.9762 18.8417 15.9073 18.957 15.8497C19.0755 15.792 19.2324 15.7632 19.4278 15.7632C19.5879 15.7632 19.7192 15.7969 19.8217 15.8641C19.9274 15.9282 20.0075 16.0114 20.0619 16.1139C20.1292 16.0627 20.2061 16.0098 20.2925 15.9554C20.379 15.9009 20.4719 15.8561 20.5712 15.8209C20.6737 15.7824 20.7762 15.7632 20.8786 15.7632C21.0996 15.7632 21.2694 15.8033 21.3879 15.8833C21.5096 15.9602 21.5929 16.0739 21.6377 16.2244C21.6825 16.3717 21.7049 16.5511 21.7049 16.7625V18.3959H20.7729V16.849C20.7729 16.7817 20.7617 16.7304 20.7393 16.6952C20.7169 16.66 20.6865 16.636 20.648 16.6232C20.6128 16.6071 20.5696 16.5991 20.5183 16.5991C20.4543 16.5991 20.3902 16.6135 20.3262 16.6424C20.2621 16.6712 20.2093 16.7064 20.1676 16.7481C20.1676 16.7673 20.1676 16.7881 20.1676 16.8105C20.1676 16.8297 20.1676 16.849 20.1676 16.8682V18.3959H19.2356V16.849C19.2356 16.7817 19.2244 16.7304 19.202 16.6952C19.1796 16.66 19.1492 16.636 19.1107 16.6232C19.0755 16.6071 19.0323 16.5991 18.981 16.5991C18.9394 16.5991 18.8961 16.6055 18.8513 16.6184C18.8065 16.6312 18.7648 16.6488 18.7264 16.6712C18.6912 16.6936 18.6591 16.7192 18.6303 16.7481V18.3959H17.6983ZM22.7951 18.4247C22.5965 18.4247 22.4348 18.3654 22.3099 18.2469C22.1882 18.1284 22.1273 17.9683 22.1273 17.7665V17.5023C22.1273 17.3101 22.1978 17.15 22.3387 17.0219C22.4796 16.8938 22.7038 16.8297 23.0113 16.8297H23.5301V16.7481C23.5301 16.684 23.5189 16.6344 23.4965 16.5991C23.4741 16.5607 23.4276 16.5351 23.3572 16.5223C23.2899 16.5063 23.1826 16.4983 23.0353 16.4983H22.2811V15.965C22.4156 15.9105 22.5693 15.8657 22.7423 15.8305C22.9184 15.7952 23.133 15.7776 23.386 15.7776C23.6038 15.7776 23.7928 15.8033 23.9529 15.8545C24.1162 15.9025 24.2411 15.9922 24.3276 16.1235C24.4173 16.2516 24.4621 16.4374 24.4621 16.6808V18.3959H23.7223L23.5782 18.1365C23.5461 18.1685 23.5061 18.2005 23.4581 18.2325C23.4132 18.2646 23.3588 18.2966 23.2947 18.3286C23.2307 18.3574 23.157 18.3799 23.0737 18.3959C22.9905 18.4151 22.8976 18.4247 22.7951 18.4247ZM23.2851 17.7906C23.3011 17.7906 23.3188 17.789 23.338 17.7858C23.3572 17.7825 23.3764 17.7793 23.3956 17.7761C23.4148 17.7697 23.4325 17.7649 23.4485 17.7617C23.4677 17.7553 23.4837 17.7489 23.4965 17.7425C23.5093 17.7361 23.5205 17.7313 23.5301 17.7281V17.2621L23.3332 17.2909C23.2435 17.3037 23.1746 17.3278 23.1266 17.363C23.0818 17.395 23.0593 17.4463 23.0593 17.5167V17.6128C23.0593 17.6544 23.0673 17.6897 23.0834 17.7185C23.1026 17.7441 23.1282 17.7633 23.1602 17.7761C23.1954 17.7858 23.2371 17.7906 23.2851 17.7906ZM24.97 18.3959V14.7303H25.902V16.6184H26.1614L26.5842 15.8065H27.521L26.8532 17.0363L27.6074 18.3959H26.6754L26.1566 17.4543H25.902V18.3959H24.97ZM27.9867 15.4798C27.9098 15.4798 27.8714 15.4429 27.8714 15.3693V14.836C27.8714 14.756 27.9098 14.7159 27.9867 14.7159H28.7169C28.7521 14.7159 28.7777 14.7271 28.7937 14.7496C28.813 14.772 28.8226 14.8008 28.8226 14.836V15.3693C28.8226 15.4429 28.7873 15.4798 28.7169 15.4798H27.9867ZM27.881 18.3959V15.8065H28.813V18.3959H27.881ZM29.3329 18.3959V15.8065H30.1112L30.2649 16.0563C30.345 15.9826 30.4523 15.9154 30.5868 15.8545C30.7213 15.7936 30.8574 15.7632 30.9951 15.7632C31.2193 15.7632 31.3891 15.8065 31.5044 15.8929C31.6197 15.9762 31.6981 16.0915 31.7398 16.2388C31.7814 16.383 31.8022 16.5447 31.8022 16.724V18.3959H30.8702V16.849C30.8702 16.7817 30.859 16.7304 30.8366 16.6952C30.8142 16.66 30.7837 16.636 30.7453 16.6232C30.7101 16.6071 30.6668 16.5991 30.6156 16.5991C30.574 16.5991 30.5307 16.6055 30.4859 16.6184C30.441 16.6312 30.3994 16.6488 30.361 16.6712C30.3257 16.6936 30.2937 16.7192 30.2649 16.7481V18.3959H29.3329ZM33.0014 19.5969C32.8444 19.5969 32.7019 19.5729 32.5738 19.5248C32.4457 19.4768 32.3432 19.4063 32.2663 19.3135C32.1927 19.2238 32.1558 19.1149 32.1558 18.9868V18.9339C32.1558 18.8026 32.1943 18.6889 32.2711 18.5928C32.3512 18.4968 32.4537 18.4231 32.5786 18.3719C32.7035 18.3174 32.838 18.2902 32.9821 18.2902L33.2752 18.5592C33.2207 18.5592 33.1759 18.5672 33.1407 18.5832C33.1055 18.5992 33.0798 18.6201 33.0638 18.6457C33.0478 18.6745 33.0398 18.7065 33.0398 18.7418V18.7658C33.0398 18.817 33.0574 18.8603 33.0926 18.8955C33.1311 18.9339 33.1919 18.9532 33.2752 18.9532H33.698C33.7684 18.9532 33.8261 18.9387 33.8709 18.9099C33.9157 18.8811 33.9382 18.8395 33.9382 18.785V18.7274C33.9382 18.6889 33.927 18.6569 33.9045 18.6313C33.8853 18.6089 33.8581 18.5912 33.8229 18.5784C33.7876 18.5656 33.746 18.5592 33.698 18.5592H33.256C32.9101 18.5592 32.6571 18.4984 32.4969 18.3767C32.34 18.2518 32.2615 18.1028 32.2615 17.9299C32.2615 17.7986 32.2984 17.6849 32.372 17.5888C32.4457 17.4927 32.5482 17.4286 32.6795 17.3966C32.5898 17.339 32.5161 17.2717 32.4585 17.1948C32.4041 17.118 32.364 17.0347 32.3384 16.945C32.3128 16.8554 32.3 16.7609 32.3 16.6616C32.3 16.4758 32.3384 16.3205 32.4153 16.1956C32.4921 16.0675 32.6122 15.9714 32.7756 15.9073C32.9421 15.8401 33.1599 15.8065 33.4289 15.8065H34.8413V16.3157L34.5675 16.4022C34.5899 16.4342 34.6075 16.4726 34.6203 16.5175C34.6364 16.5591 34.6476 16.6087 34.654 16.6664C34.6636 16.7208 34.6684 16.7849 34.6684 16.8586C34.6684 17.0187 34.6348 17.158 34.5675 17.2765C34.5034 17.395 34.4026 17.4879 34.2648 17.5552C34.1271 17.6192 33.9462 17.6512 33.722 17.6512H33.232C33.1807 17.6512 33.1359 17.6608 33.0974 17.6801C33.059 17.6961 33.0398 17.7249 33.0398 17.7665C33.0398 17.8082 33.059 17.8354 33.0974 17.8482C33.1359 17.861 33.1807 17.8674 33.232 17.8674H33.8565C34.0519 17.8674 34.2216 17.893 34.3657 17.9443C34.5099 17.9955 34.6219 18.082 34.702 18.2037C34.7821 18.3222 34.8221 18.4839 34.8221 18.6889V18.7322C34.8221 19.0012 34.7405 19.2126 34.5771 19.3663C34.417 19.52 34.1624 19.5969 33.8133 19.5969H33.0014ZM33.3521 16.9594H33.6163C33.6707 16.9594 33.714 16.9514 33.746 16.9354C33.778 16.9194 33.8004 16.8938 33.8133 16.8586C33.8261 16.8233 33.8325 16.7785 33.8325 16.724C33.8325 16.6696 33.8261 16.6264 33.8133 16.5943C33.8004 16.5591 33.778 16.5351 33.746 16.5223C33.714 16.5063 33.6707 16.4983 33.6163 16.4983H33.3521C33.272 16.4983 33.2159 16.5159 33.1839 16.5511C33.1519 16.5831 33.1359 16.6408 33.1359 16.724C33.1359 16.8041 33.1519 16.8634 33.1839 16.9018C33.2159 16.9402 33.272 16.9594 33.3521 16.9594ZM37.6755 18.4199C37.3808 18.4199 37.1438 18.3831 36.9645 18.3094C36.7851 18.2357 36.6538 18.1044 36.5705 17.9155C36.4904 17.7233 36.4504 17.4543 36.4504 17.1084C36.4504 16.7529 36.4872 16.479 36.5609 16.2869C36.6346 16.0915 36.7563 15.9554 36.926 15.8785C37.099 15.8017 37.3344 15.7632 37.6322 15.7632C37.9077 15.7632 38.1254 15.7888 38.2856 15.8401C38.4457 15.8913 38.5594 15.9842 38.6267 16.1187C38.6971 16.25 38.7324 16.4374 38.7324 16.6808C38.7324 16.8698 38.6955 17.0187 38.6219 17.1276C38.5482 17.2333 38.4441 17.3085 38.3096 17.3534C38.1751 17.3982 38.0166 17.4206 37.834 17.4206H37.3728C37.3824 17.4975 37.4016 17.56 37.4305 17.608C37.4593 17.6528 37.5121 17.6849 37.589 17.7041C37.6659 17.7233 37.7796 17.7329 37.9301 17.7329H38.6363V18.2758C38.5242 18.3078 38.3897 18.3398 38.2327 18.3719C38.079 18.4039 37.8932 18.4199 37.6755 18.4199ZM37.3632 16.8778H37.7331C37.7972 16.8778 37.8436 16.8634 37.8724 16.8345C37.9013 16.8057 37.9157 16.7561 37.9157 16.6856C37.9157 16.6248 37.9061 16.5751 37.8868 16.5367C37.8676 16.4983 37.8372 16.471 37.7956 16.455C37.7539 16.4358 37.6995 16.4262 37.6322 16.4262C37.5714 16.4262 37.5201 16.439 37.4785 16.4646C37.4401 16.4902 37.4112 16.5367 37.392 16.6039C37.3728 16.668 37.3632 16.7593 37.3632 16.8778ZM39.1847 18.3959V15.8065H39.963L40.1167 16.0563C40.1968 15.9826 40.3041 15.9154 40.4386 15.8545C40.5731 15.7936 40.7092 15.7632 40.8469 15.7632C41.0711 15.7632 41.2409 15.8065 41.3562 15.8929C41.4715 15.9762 41.5499 16.0915 41.5916 16.2388C41.6332 16.383 41.654 16.5447 41.654 16.724V18.3959H40.722V16.849C40.722 16.7817 40.7108 16.7304 40.6884 16.6952C40.666 16.66 40.6355 16.636 40.5971 16.6232C40.5619 16.6071 40.5186 16.5991 40.4674 16.5991C40.4258 16.5991 40.3825 16.6055 40.3377 16.6184C40.2928 16.6312 40.2512 16.6488 40.2128 16.6712C40.1776 16.6936 40.1455 16.7192 40.1167 16.7481V18.3959H39.1847ZM43.3192 18.4199C43.0245 18.4199 42.7875 18.3831 42.6082 18.3094C42.4288 18.2357 42.2975 18.1044 42.2142 17.9155C42.1342 17.7233 42.0941 17.4543 42.0941 17.1084C42.0941 16.7529 42.1309 16.479 42.2046 16.2869C42.2783 16.0915 42.4 15.9554 42.5697 15.8785C42.7427 15.8017 42.9781 15.7632 43.2759 15.7632C43.5514 15.7632 43.7691 15.7888 43.9293 15.8401C44.0894 15.8913 44.2031 15.9842 44.2704 16.1187C44.3408 16.25 44.3761 16.4374 44.3761 16.6808C44.3761 16.8698 44.3392 17.0187 44.2656 17.1276C44.1919 17.2333 44.0878 17.3085 43.9533 17.3534C43.8188 17.3982 43.6603 17.4206 43.4777 17.4206H43.0165C43.0261 17.4975 43.0453 17.56 43.0742 17.608C43.103 17.6528 43.1558 17.6849 43.2327 17.7041C43.3096 17.7233 43.4233 17.7329 43.5738 17.7329H44.28V18.2758C44.1679 18.3078 44.0334 18.3398 43.8764 18.3719C43.7227 18.4039 43.537 18.4199 43.3192 18.4199ZM43.0069 16.8778H43.3768C43.4409 16.8778 43.4873 16.8634 43.5161 16.8345C43.545 16.8057 43.5594 16.7561 43.5594 16.6856C43.5594 16.6248 43.5498 16.5751 43.5305 16.5367C43.5113 16.4983 43.4809 16.471 43.4393 16.455C43.3976 16.4358 43.3432 16.4262 43.2759 16.4262C43.2151 16.4262 43.1638 16.439 43.1222 16.4646C43.0838 16.4902 43.0549 16.5367 43.0357 16.6039C43.0165 16.668 43.0069 16.7593 43.0069 16.8778ZM44.8284 18.3959V15.8065H45.5538L45.7604 16.1668C45.8373 16.0611 45.9253 15.9682 46.0246 15.8881C46.1271 15.8081 46.2504 15.768 46.3945 15.768C46.4202 15.768 46.4506 15.7696 46.4858 15.7728C46.5211 15.776 46.5547 15.7824 46.5867 15.792V16.7481C46.5323 16.7417 46.4762 16.7369 46.4186 16.7337C46.3641 16.7304 46.3145 16.7288 46.2696 16.7288C46.1928 16.7288 46.1223 16.7369 46.0583 16.7529C45.9942 16.7657 45.9366 16.7865 45.8853 16.8153C45.8373 16.8441 45.7956 16.8826 45.7604 16.9306V18.3959H44.8284ZM47.6805 19.5969C47.5236 19.5969 47.3811 19.5729 47.253 19.5248C47.1249 19.4768 47.0224 19.4063 46.9455 19.3135C46.8719 19.2238 46.835 19.1149 46.835 18.9868V18.9339C46.835 18.8026 46.8735 18.6889 46.9503 18.5928C47.0304 18.4968 47.1329 18.4231 47.2578 18.3719C47.3827 18.3174 47.5172 18.2902 47.6613 18.2902L47.9544 18.5592C47.8999 18.5592 47.8551 18.5672 47.8199 18.5832C47.7846 18.5992 47.759 18.6201 47.743 18.6457C47.727 18.6745 47.719 18.7065 47.719 18.7418V18.7658C47.719 18.817 47.7366 18.8603 47.7718 18.8955C47.8103 18.9339 47.8711 18.9532 47.9544 18.9532H48.3771C48.4476 18.9532 48.5053 18.9387 48.5501 18.9099C48.5949 18.8811 48.6173 18.8395 48.6173 18.785V18.7274C48.6173 18.6889 48.6061 18.6569 48.5837 18.6313C48.5645 18.6089 48.5373 18.5912 48.502 18.5784C48.4668 18.5656 48.4252 18.5592 48.3771 18.5592H47.9352C47.5893 18.5592 47.3363 18.4984 47.1761 18.3767C47.0192 18.2518 46.9407 18.1028 46.9407 17.9299C46.9407 17.7986 46.9775 17.6849 47.0512 17.5888C47.1249 17.4927 47.2274 17.4286 47.3587 17.3966C47.269 17.339 47.1953 17.2717 47.1377 17.1948C47.0832 17.118 47.0432 17.0347 47.0176 16.945C46.992 16.8554 46.9791 16.7609 46.9791 16.6616C46.9791 16.4758 47.0176 16.3205 47.0944 16.1956C47.1713 16.0675 47.2914 15.9714 47.4548 15.9073C47.6213 15.8401 47.8391 15.8065 48.1081 15.8065H49.5205V16.3157L49.2467 16.4022C49.2691 16.4342 49.2867 16.4726 49.2995 16.5175C49.3155 16.5591 49.3268 16.6087 49.3332 16.6664C49.3428 16.7208 49.3476 16.7849 49.3476 16.8586C49.3476 17.0187 49.3139 17.158 49.2467 17.2765C49.1826 17.395 49.0817 17.4879 48.944 17.5552C48.8063 17.6192 48.6254 17.6512 48.4012 17.6512H47.9111C47.8599 17.6512 47.8151 17.6608 47.7766 17.6801C47.7382 17.6961 47.719 17.7249 47.719 17.7665C47.719 17.8082 47.7382 17.8354 47.7766 17.8482C47.8151 17.861 47.8599 17.8674 47.9111 17.8674H48.5357C48.731 17.8674 48.9008 17.893 49.0449 17.9443C49.189 17.9955 49.3011 18.082 49.3812 18.2037C49.4613 18.3222 49.5013 18.4839 49.5013 18.6889V18.7322C49.5013 19.0012 49.4196 19.2126 49.2563 19.3663C49.0962 19.52 48.8415 19.5969 48.4924 19.5969H47.6805ZM48.0312 16.9594H48.2955C48.3499 16.9594 48.3932 16.9514 48.4252 16.9354C48.4572 16.9194 48.4796 16.8938 48.4924 16.8586C48.5053 16.8233 48.5117 16.7785 48.5117 16.724C48.5117 16.6696 48.5053 16.6264 48.4924 16.5943C48.4796 16.5591 48.4572 16.5351 48.4252 16.5223C48.3932 16.5063 48.3499 16.4983 48.2955 16.4983H48.0312C47.9512 16.4983 47.8951 16.5159 47.8631 16.5511C47.8311 16.5831 47.8151 16.6408 47.8151 16.724C47.8151 16.8041 47.8311 16.8634 47.8631 16.9018C47.8951 16.9402 47.9512 16.9594 48.0312 16.9594ZM50.7837 19.5344L51.0335 18.3959C50.8478 18.3959 50.6924 18.3638 50.5675 18.2998C50.4458 18.2325 50.3497 18.1429 50.2793 18.0308C50.2088 17.9187 50.1576 17.7906 50.1255 17.6464L49.7268 15.8065H50.6924L50.9855 17.4591C50.9919 17.4975 51.0015 17.5295 51.0143 17.5552C51.0303 17.5776 51.0479 17.5952 51.0671 17.608C51.0896 17.6208 51.1104 17.6304 51.1296 17.6368C51.152 17.6432 51.1728 17.6464 51.192 17.6464L51.5235 15.8065H52.4699L51.8118 19.0588L51.5716 19.5344H50.7837ZM55.1646 18.4247C55.0013 18.4247 54.8508 18.4039 54.713 18.3622C54.5753 18.3174 54.4568 18.2453 54.3575 18.1461C54.2583 18.0468 54.1814 17.9139 54.1269 17.7473C54.0725 17.5776 54.0453 17.3678 54.0453 17.118C54.0453 16.8554 54.0693 16.6376 54.1173 16.4646C54.1686 16.2885 54.2422 16.1492 54.3383 16.0467C54.4344 15.9442 54.5545 15.8721 54.6986 15.8305C54.8428 15.7856 55.0077 15.7632 55.1935 15.7632C55.3664 15.7632 55.5217 15.7744 55.6595 15.7969C55.8004 15.8193 55.9557 15.8577 56.1255 15.9121V16.4454H55.4961C55.3584 16.4454 55.2511 16.4646 55.1742 16.5031C55.1006 16.5383 55.0493 16.6039 55.0205 16.7C54.9917 16.7929 54.9773 16.9274 54.9773 17.1036C54.9773 17.2829 54.9901 17.4174 55.0157 17.5071C55.0445 17.5968 55.0958 17.656 55.1694 17.6849C55.2463 17.7137 55.3584 17.7281 55.5057 17.7281H56.1591V18.2518C56.079 18.2838 55.9813 18.3142 55.866 18.343C55.7539 18.3687 55.637 18.3879 55.5153 18.4007C55.3936 18.4167 55.2767 18.4247 55.1646 18.4247ZM57.7312 18.4199C57.5006 18.4199 57.3052 18.3959 57.1451 18.3478C56.9881 18.2998 56.8616 18.2229 56.7655 18.1172C56.6694 18.0115 56.6006 17.8754 56.559 17.7089C56.5173 17.5391 56.4965 17.3342 56.4965 17.094C56.4965 16.8345 56.5173 16.62 56.559 16.4502C56.6038 16.2773 56.6743 16.1411 56.7703 16.0419C56.8664 15.9394 56.9929 15.8673 57.1499 15.8257C57.31 15.784 57.5038 15.7632 57.7312 15.7632C57.9618 15.7632 58.1555 15.7856 58.3125 15.8305C58.4726 15.8753 58.5991 15.949 58.692 16.0515C58.7881 16.1508 58.8569 16.2869 58.8986 16.4598C58.9434 16.6296 58.9658 16.8409 58.9658 17.094C58.9658 17.3438 58.945 17.5536 58.9034 17.7233C58.8649 17.893 58.7977 18.0292 58.7016 18.1316C58.6087 18.2341 58.4822 18.3078 58.3221 18.3526C58.1651 18.3975 57.9682 18.4199 57.7312 18.4199ZM57.7312 17.6801C57.792 17.6801 57.8416 17.6753 57.8801 17.6656C57.9185 17.6528 57.9489 17.6272 57.9714 17.5888C57.9938 17.5504 58.0098 17.4911 58.0194 17.411C58.029 17.331 58.0338 17.2237 58.0338 17.0892C58.0338 16.9546 58.029 16.849 58.0194 16.7721C58.0098 16.692 57.9938 16.6328 57.9714 16.5943C57.9489 16.5559 57.9185 16.5319 57.8801 16.5223C57.8416 16.5095 57.792 16.5031 57.7312 16.5031C57.6703 16.5031 57.6207 16.5095 57.5822 16.5223C57.5438 16.5319 57.5134 16.5559 57.4909 16.5943C57.4685 16.6328 57.4525 16.692 57.4429 16.7721C57.4333 16.849 57.4285 16.9546 57.4285 17.0892C57.4285 17.2237 57.4333 17.331 57.4429 17.411C57.4525 17.4911 57.4685 17.5504 57.4909 17.5888C57.5134 17.6272 57.5438 17.6528 57.5822 17.6656C57.6207 17.6753 57.6703 17.6801 57.7312 17.6801ZM60.1295 18.4247C59.9053 18.4247 59.7291 18.3542 59.601 18.2133C59.4729 18.0692 59.4088 17.8802 59.4088 17.6464V15.8065H60.3408V17.3534C60.3408 17.4527 60.3649 17.5199 60.4129 17.5552C60.4609 17.5872 60.5218 17.6032 60.5955 17.6032C60.6435 17.6032 60.7044 17.5888 60.778 17.56C60.8549 17.5311 60.9109 17.4959 60.9462 17.4543V15.8065H61.8782V18.3959H61.0999L60.9462 18.1461C60.8373 18.2165 60.7124 18.2806 60.5714 18.3382C60.4337 18.3959 60.2864 18.4247 60.1295 18.4247ZM62.3951 18.3959V15.8065H63.1734L63.3271 16.0563C63.4072 15.9826 63.5145 15.9154 63.649 15.8545C63.7835 15.7936 63.9196 15.7632 64.0573 15.7632C64.2815 15.7632 64.4513 15.8065 64.5666 15.8929C64.6819 15.9762 64.7603 16.0915 64.802 16.2388C64.8436 16.383 64.8644 16.5447 64.8644 16.724V18.3959H63.9324V16.849C63.9324 16.7817 63.9212 16.7304 63.8988 16.6952C63.8764 16.66 63.846 16.636 63.8075 16.6232C63.7723 16.6071 63.7291 16.5991 63.6778 16.5991C63.6362 16.5991 63.5929 16.6055 63.5481 16.6184C63.5033 16.6312 63.4616 16.6488 63.4232 16.6712C63.388 16.6936 63.3559 16.7192 63.3271 16.7481V18.3959H62.3951ZM66.4431 18.3959C66.2221 18.3959 66.0444 18.367 65.9099 18.3094C65.7785 18.2485 65.6841 18.1477 65.6264 18.0067C65.572 17.8626 65.5479 17.6673 65.5543 17.4206L65.5832 16.5463H65.1844V15.9506L65.6216 15.8065L65.7369 15.081H66.4767V15.8065H67.0004V16.5463H66.4767V17.4158C66.4767 17.4575 66.4799 17.4943 66.4863 17.5263C66.4928 17.5552 66.5024 17.5808 66.5152 17.6032C66.5312 17.6224 66.5504 17.6384 66.5728 17.6512C66.5952 17.6608 66.6209 17.6673 66.6497 17.6705L66.9812 17.7041V18.3959H66.4431Z" fill="black"/>
<path d="M68.7421 13.4442C68.5763 13.4442 68.443 13.4226 68.3421 13.3794C68.2436 13.3337 68.1728 13.2581 68.1295 13.1524C68.0887 13.0443 68.0707 12.8977 68.0755 12.7128L68.0971 12.057H67.798V11.6102L68.1259 11.5022L68.2124 10.9581H68.7673V11.5022H69.16V12.057H68.7673V12.7092C68.7673 12.7404 68.7697 12.768 68.7745 12.7921C68.7793 12.8137 68.7865 12.8329 68.7961 12.8497C68.8081 12.8641 68.8225 12.8761 68.8393 12.8857C68.8561 12.8929 68.8754 12.8977 68.897 12.9001L69.1456 12.9254V13.4442H68.7421ZM69.3918 13.4442V11.5022H69.9755L70.0908 11.6895C70.1676 11.6295 70.2493 11.5778 70.3358 11.5346C70.4246 11.4913 70.5423 11.4697 70.6889 11.4697C70.809 11.4697 70.9075 11.4949 70.9843 11.5454C71.0636 11.5934 71.1236 11.6559 71.1645 11.7327C71.2149 11.6943 71.2726 11.6547 71.3374 11.6138C71.4023 11.573 71.4719 11.5394 71.5464 11.513C71.6233 11.4841 71.7001 11.4697 71.777 11.4697C71.9427 11.4697 72.0701 11.4998 72.1589 11.5598C72.2502 11.6175 72.3127 11.7027 72.3463 11.8156C72.3799 11.9261 72.3967 12.0606 72.3967 12.2192V13.4442H71.6977V12.284C71.6977 12.2336 71.6893 12.1951 71.6725 12.1687C71.6557 12.1423 71.6329 12.1243 71.6041 12.1147C71.5776 12.1027 71.5452 12.0967 71.5068 12.0967C71.4587 12.0967 71.4107 12.1075 71.3626 12.1291C71.3146 12.1507 71.275 12.1771 71.2437 12.2084C71.2437 12.2228 71.2437 12.2384 71.2437 12.2552C71.2437 12.2696 71.2437 12.284 71.2437 12.2984V13.4442H70.5447V12.284C70.5447 12.2336 70.5363 12.1951 70.5195 12.1687C70.5027 12.1423 70.4799 12.1243 70.4511 12.1147C70.4246 12.1027 70.3922 12.0967 70.3538 12.0967C70.3226 12.0967 70.2901 12.1015 70.2565 12.1111C70.2229 12.1207 70.1916 12.1339 70.1628 12.1507C70.1364 12.1675 70.1124 12.1867 70.0908 12.2084V13.4442H69.3918Z" fill="black"/>
</svg>
