<svg width="601" height="159" viewBox="0 0 601 159" fill="none" xmlns="http://www.w3.org/2000/svg">
<path d="M6.82754 114V30.3627H30.2584L36.9308 42.0005C39.4135 38.5868 42.2583 35.5868 45.4652 33.0006C48.7755 30.4144 52.7582 29.1213 57.4134 29.1213C58.2409 29.1213 59.2237 29.173 60.3616 29.2765C61.4995 29.3799 62.5857 29.5868 63.6202 29.8972V60.7763C61.8616 60.5694 60.0513 60.4142 58.1892 60.3107C56.4306 60.2073 54.8272 60.1556 53.3789 60.1556C50.8962 60.1556 48.6203 60.4142 46.5514 60.9314C44.4824 61.3452 42.6204 62.0176 40.9652 62.9487C39.4135 63.8797 38.0687 65.1211 36.9308 66.6728V114H6.82754ZM111.83 114.776C102.313 114.776 94.6577 113.586 88.8646 111.207C83.0716 108.828 78.8302 104.586 76.1406 98.4829C73.5544 92.276 72.2613 83.5864 72.2613 72.4141C72.2613 60.9314 73.451 52.0867 75.8303 45.8798C78.2095 39.5695 82.1406 35.173 87.6233 32.6903C93.2094 30.2075 100.813 28.9661 110.433 28.9661C119.33 28.9661 126.364 29.7937 131.537 31.4489C136.709 33.1041 140.381 36.104 142.554 40.4488C144.83 44.6902 145.968 50.7418 145.968 58.6039C145.968 64.7073 144.778 69.5176 142.399 73.0348C140.019 76.4486 136.657 78.8796 132.313 80.3278C127.968 81.7761 122.847 82.5002 116.951 82.5002H102.054C102.365 84.983 102.985 87.0002 103.916 88.5519C104.847 90.0002 106.554 91.0347 109.037 91.6553C111.52 92.276 115.192 92.5864 120.054 92.5864H142.864V110.121C139.244 111.155 134.899 112.19 129.83 113.224C124.864 114.259 118.864 114.776 111.83 114.776ZM101.744 64.9659H113.692C115.761 64.9659 117.261 64.5004 118.192 63.5693C119.123 62.6383 119.589 61.0349 119.589 58.759C119.589 56.7935 119.278 55.1901 118.658 53.9487C118.037 52.7074 117.054 51.8281 115.709 51.3108C114.364 50.6901 112.606 50.3798 110.433 50.3798C108.468 50.3798 106.813 50.7936 105.468 51.6212C104.227 52.4487 103.296 53.9487 102.675 56.1211C102.054 58.1901 101.744 61.1383 101.744 64.9659ZM177.063 114L151.304 30.3627H182.338L195.062 86.2243L208.407 30.3627H239.131L211.821 114H177.063ZM282.501 114.776C272.984 114.776 265.329 113.586 259.536 111.207C253.743 108.828 249.502 104.586 246.812 98.4829C244.226 92.276 242.933 83.5864 242.933 72.4141C242.933 60.9314 244.122 52.0867 246.502 45.8798C248.881 39.5695 252.812 35.173 258.295 32.6903C263.881 30.2075 271.484 28.9661 281.105 28.9661C290.001 28.9661 297.036 29.7937 302.208 31.4489C307.381 33.1041 311.053 36.104 313.225 40.4488C315.501 44.6902 316.639 50.7418 316.639 58.6039C316.639 64.7073 315.449 69.5176 313.07 73.0348C310.691 76.4486 307.329 78.8796 302.984 80.3278C298.639 81.7761 293.519 82.5002 287.622 82.5002H272.726C273.036 84.983 273.657 87.0002 274.588 88.5519C275.519 90.0002 277.226 91.0347 279.708 91.6553C282.191 92.276 285.863 92.5864 290.725 92.5864H313.536V110.121C309.915 111.155 305.57 112.19 300.501 113.224C295.536 114.259 289.536 114.776 282.501 114.776ZM272.415 64.9659H284.363C286.432 64.9659 287.932 64.5004 288.863 63.5693C289.794 62.6383 290.26 61.0349 290.26 58.759C290.26 56.7935 289.95 55.1901 289.329 53.9487C288.708 52.7074 287.725 51.8281 286.381 51.3108C285.036 50.6901 283.277 50.3798 281.105 50.3798C279.139 50.3798 277.484 50.7936 276.139 51.6212C274.898 52.4487 273.967 53.9487 273.346 56.1211C272.726 58.1901 272.415 61.1383 272.415 64.9659ZM329.077 114V30.3627H352.508L359.18 42.0005C361.663 38.5868 364.508 35.5868 367.715 33.0006C371.025 30.4144 375.008 29.1213 379.663 29.1213C380.49 29.1213 381.473 29.173 382.611 29.2765C383.749 29.3799 384.835 29.5868 385.87 29.8972V60.7763C384.111 60.5694 382.301 60.4142 380.439 60.3107C378.68 60.2073 377.077 60.1556 375.628 60.1556C373.146 60.1556 370.87 60.4142 368.801 60.9314C366.732 61.3452 364.87 62.0176 363.215 62.9487C361.663 63.8797 360.318 65.1211 359.18 66.6728V114H329.077ZM416.855 114L391.097 30.3627H422.131L434.855 86.2243L448.2 30.3627H478.924L451.614 114H416.855ZM522.294 114.776C512.777 114.776 505.122 113.586 499.329 111.207C493.536 108.828 489.295 104.586 486.605 98.4829C484.019 92.276 482.726 83.5864 482.726 72.4141C482.726 60.9314 483.915 52.0867 486.295 45.8798C488.674 39.5695 492.605 35.173 498.088 32.6903C503.674 30.2075 511.277 28.9661 520.898 28.9661C529.794 28.9661 536.829 29.7937 542.001 31.4489C547.173 33.1041 550.846 36.104 553.018 40.4488C555.294 44.6902 556.432 50.7418 556.432 58.6039C556.432 64.7073 555.242 69.5176 552.863 73.0348C550.484 76.4486 547.122 78.8796 542.777 80.3278C538.432 81.7761 533.311 82.5002 527.415 82.5002H512.519C512.829 84.983 513.45 87.0002 514.381 88.5519C515.312 90.0002 517.018 91.0347 519.501 91.6553C521.984 92.276 525.656 92.5864 530.518 92.5864H553.329V110.121C549.708 111.155 545.363 112.19 540.294 113.224C535.329 114.259 529.329 114.776 522.294 114.776ZM512.208 64.9659H524.156C526.225 64.9659 527.725 64.5004 528.656 63.5693C529.587 62.6383 530.053 61.0349 530.053 58.759C530.053 56.7935 529.743 55.1901 529.122 53.9487C528.501 52.7074 527.518 51.8281 526.174 51.3108C524.829 50.6901 523.07 50.3798 520.898 50.3798C518.932 50.3798 517.277 50.7936 515.932 51.6212C514.691 52.4487 513.76 53.9487 513.139 56.1211C512.519 58.1901 512.208 61.1383 512.208 64.9659Z" fill="black"/>
<path d="M146.481 148.148V126.717H152.922L154.195 128.784C155.043 128.122 155.944 127.552 156.898 127.075C157.879 126.597 159.178 126.359 160.795 126.359C162.12 126.359 163.207 126.637 164.055 127.194C164.93 127.724 165.593 128.413 166.043 129.261C166.6 128.837 167.236 128.4 167.952 127.949C168.668 127.499 169.436 127.128 170.258 126.836C171.106 126.518 171.955 126.359 172.803 126.359C174.632 126.359 176.037 126.69 177.018 127.353C178.025 127.989 178.714 128.93 179.085 130.176C179.456 131.395 179.642 132.88 179.642 134.629V148.148H171.928V135.345C171.928 134.788 171.835 134.364 171.65 134.073C171.464 133.781 171.212 133.582 170.894 133.476C170.603 133.344 170.245 133.277 169.821 133.277C169.291 133.277 168.76 133.397 168.23 133.635C167.7 133.874 167.263 134.165 166.918 134.51C166.918 134.669 166.918 134.841 166.918 135.027C166.918 135.186 166.918 135.345 166.918 135.504V148.148H159.204V135.345C159.204 134.788 159.112 134.364 158.926 134.073C158.741 133.781 158.489 133.582 158.171 133.476C157.879 133.344 157.521 133.277 157.097 133.277C156.753 133.277 156.395 133.33 156.024 133.436C155.652 133.542 155.308 133.688 154.99 133.874C154.698 134.059 154.433 134.271 154.195 134.51V148.148H146.481ZM188.665 148.387C187.021 148.387 185.682 147.896 184.649 146.915C183.641 145.935 183.138 144.609 183.138 142.939V140.752C183.138 139.162 183.721 137.837 184.887 136.776C186.054 135.716 187.909 135.186 190.454 135.186H194.748V134.51C194.748 133.98 194.655 133.569 194.47 133.277C194.284 132.959 193.9 132.747 193.317 132.641C192.76 132.509 191.872 132.442 190.653 132.442H184.41V128.029C185.523 127.578 186.796 127.207 188.227 126.915C189.685 126.624 191.461 126.478 193.555 126.478C195.358 126.478 196.922 126.69 198.247 127.114C199.599 127.512 200.633 128.254 201.348 129.341C202.091 130.401 202.462 131.939 202.462 133.953V148.148H196.339L195.146 146.001C194.881 146.266 194.549 146.531 194.152 146.796C193.781 147.061 193.33 147.326 192.8 147.591C192.27 147.83 191.66 148.016 190.971 148.148C190.282 148.307 189.513 148.387 188.665 148.387ZM192.72 143.138C192.853 143.138 192.999 143.125 193.158 143.098C193.317 143.072 193.476 143.045 193.635 143.019C193.794 142.966 193.94 142.926 194.072 142.9C194.231 142.847 194.364 142.794 194.47 142.741C194.576 142.688 194.669 142.648 194.748 142.621V138.764L193.118 139.003C192.376 139.109 191.806 139.308 191.408 139.599C191.037 139.864 190.851 140.289 190.851 140.872V141.667C190.851 142.012 190.918 142.303 191.05 142.542C191.209 142.754 191.421 142.913 191.686 143.019C191.978 143.098 192.323 143.138 192.72 143.138ZM206.665 148.148V117.81H214.379V133.436H216.526L220.025 126.717H227.778L222.252 136.896L228.494 148.148H220.78L216.486 140.355H214.379V148.148H206.665ZM231.633 124.013C230.997 124.013 230.678 123.708 230.678 123.098V118.685C230.678 118.022 230.997 117.691 231.633 117.691H237.676C237.968 117.691 238.18 117.784 238.313 117.969C238.472 118.155 238.551 118.393 238.551 118.685V123.098C238.551 123.708 238.26 124.013 237.676 124.013H231.633ZM230.758 148.148V126.717H238.472V148.148H230.758ZM242.775 148.148V126.717H249.216L250.489 128.784C251.151 128.175 252.039 127.618 253.153 127.114C254.266 126.611 255.393 126.359 256.532 126.359C258.388 126.359 259.793 126.717 260.747 127.432C261.701 128.122 262.351 129.076 262.695 130.295C263.04 131.488 263.212 132.827 263.212 134.311V148.148H255.499V135.345C255.499 134.788 255.406 134.364 255.22 134.073C255.035 133.781 254.783 133.582 254.465 133.476C254.173 133.344 253.815 133.277 253.391 133.277C253.047 133.277 252.689 133.33 252.318 133.436C251.947 133.542 251.602 133.688 251.284 133.874C250.992 134.059 250.727 134.271 250.489 134.51V148.148H242.775ZM273.137 158.088C271.838 158.088 270.659 157.89 269.598 157.492C268.538 157.094 267.69 156.511 267.054 155.743C266.444 155 266.139 154.099 266.139 153.039V152.601C266.139 151.515 266.457 150.574 267.093 149.778C267.756 148.983 268.604 148.373 269.638 147.949C270.672 147.499 271.785 147.273 272.978 147.273L275.404 149.5C274.953 149.5 274.582 149.566 274.29 149.699C273.999 149.831 273.787 150.004 273.654 150.216C273.522 150.454 273.455 150.719 273.455 151.011V151.21C273.455 151.634 273.601 151.992 273.893 152.283C274.211 152.601 274.714 152.76 275.404 152.76H278.903C279.486 152.76 279.963 152.641 280.334 152.403C280.705 152.164 280.891 151.819 280.891 151.369V150.892C280.891 150.574 280.798 150.308 280.612 150.096C280.453 149.911 280.228 149.765 279.936 149.659C279.645 149.553 279.3 149.5 278.903 149.5H275.245C272.382 149.5 270.288 148.996 268.962 147.989C267.663 146.955 267.014 145.723 267.014 144.291C267.014 143.204 267.319 142.263 267.928 141.468C268.538 140.673 269.386 140.143 270.473 139.878C269.731 139.401 269.121 138.844 268.644 138.208C268.193 137.572 267.862 136.882 267.65 136.14C267.438 135.398 267.332 134.616 267.332 133.794C267.332 132.257 267.65 130.971 268.286 129.937C268.922 128.877 269.916 128.082 271.268 127.552C272.647 126.995 274.449 126.717 276.676 126.717H288.366V130.931L286.099 131.647C286.285 131.912 286.431 132.23 286.537 132.601C286.669 132.946 286.762 133.357 286.815 133.834C286.895 134.285 286.934 134.815 286.934 135.424C286.934 136.75 286.656 137.903 286.099 138.884C285.569 139.864 284.734 140.633 283.594 141.19C282.455 141.72 280.957 141.985 279.101 141.985H275.046C274.622 141.985 274.25 142.065 273.932 142.224C273.614 142.356 273.455 142.595 273.455 142.939C273.455 143.284 273.614 143.509 273.932 143.615C274.25 143.721 274.622 143.774 275.046 143.774H280.215C281.832 143.774 283.237 143.986 284.429 144.41C285.622 144.835 286.55 145.55 287.213 146.558C287.875 147.538 288.207 148.877 288.207 150.574V150.931C288.207 153.158 287.531 154.908 286.179 156.18C284.854 157.452 282.746 158.088 279.857 158.088H273.137ZM276.04 136.259H278.227C278.677 136.259 279.035 136.193 279.3 136.061C279.565 135.928 279.751 135.716 279.857 135.424C279.963 135.133 280.016 134.762 280.016 134.311C280.016 133.86 279.963 133.503 279.857 133.238C279.751 132.946 279.565 132.747 279.3 132.641C279.035 132.509 278.677 132.442 278.227 132.442H276.04C275.377 132.442 274.913 132.588 274.648 132.88C274.383 133.145 274.25 133.622 274.25 134.311C274.25 134.974 274.383 135.464 274.648 135.782C274.913 136.1 275.377 136.259 276.04 136.259ZM311.823 148.347C309.384 148.347 307.422 148.042 305.938 147.432C304.453 146.823 303.367 145.736 302.677 144.172C302.015 142.581 301.683 140.355 301.683 137.492C301.683 134.55 301.988 132.283 302.598 130.693C303.208 129.076 304.215 127.949 305.62 127.313C307.051 126.677 308.999 126.359 311.465 126.359C313.744 126.359 315.547 126.571 316.872 126.995C318.198 127.419 319.139 128.188 319.695 129.301C320.278 130.388 320.57 131.939 320.57 133.953C320.57 135.517 320.265 136.75 319.656 137.651C319.046 138.526 318.184 139.149 317.071 139.52C315.958 139.891 314.646 140.077 313.135 140.077H309.318C309.397 140.713 309.556 141.23 309.795 141.627C310.033 141.998 310.471 142.263 311.107 142.422C311.743 142.581 312.684 142.661 313.93 142.661H319.775V147.154C318.847 147.419 317.734 147.684 316.435 147.949C315.162 148.214 313.625 148.347 311.823 148.347ZM309.238 135.583H312.3C312.83 135.583 313.214 135.464 313.453 135.226C313.691 134.987 313.811 134.576 313.811 133.993C313.811 133.489 313.731 133.078 313.572 132.76C313.413 132.442 313.161 132.217 312.817 132.084C312.472 131.925 312.021 131.846 311.465 131.846C310.961 131.846 310.537 131.952 310.192 132.164C309.874 132.376 309.636 132.76 309.477 133.317C309.318 133.847 309.238 134.603 309.238 135.583ZM324.314 148.148V126.717H330.755L332.028 128.784C332.69 128.175 333.578 127.618 334.692 127.114C335.805 126.611 336.931 126.359 338.071 126.359C339.927 126.359 341.332 126.717 342.286 127.432C343.24 128.122 343.89 129.076 344.234 130.295C344.579 131.488 344.751 132.827 344.751 134.311V148.148H337.037V135.345C337.037 134.788 336.945 134.364 336.759 134.073C336.574 133.781 336.322 133.582 336.004 133.476C335.712 133.344 335.354 133.277 334.93 133.277C334.586 133.277 334.228 133.33 333.857 133.436C333.485 133.542 333.141 133.688 332.823 133.874C332.531 134.059 332.266 134.271 332.028 134.51V148.148H324.314ZM358.533 148.347C356.094 148.347 354.133 148.042 352.648 147.432C351.164 146.823 350.077 145.736 349.388 144.172C348.725 142.581 348.394 140.355 348.394 137.492C348.394 134.55 348.699 132.283 349.308 130.693C349.918 129.076 350.925 127.949 352.33 127.313C353.762 126.677 355.71 126.359 358.175 126.359C360.455 126.359 362.257 126.571 363.583 126.995C364.908 127.419 365.849 128.188 366.406 129.301C366.989 130.388 367.28 131.939 367.28 133.953C367.28 135.517 366.976 136.75 366.366 137.651C365.756 138.526 364.895 139.149 363.781 139.52C362.668 139.891 361.356 140.077 359.845 140.077H356.028C356.107 140.713 356.266 141.23 356.505 141.627C356.744 141.998 357.181 142.263 357.817 142.422C358.453 142.581 359.394 142.661 360.64 142.661H366.485V147.154C365.557 147.419 364.444 147.684 363.145 147.949C361.873 148.214 360.335 148.347 358.533 148.347ZM355.948 135.583H359.01C359.54 135.583 359.925 135.464 360.163 135.226C360.402 134.987 360.521 134.576 360.521 133.993C360.521 133.489 360.441 133.078 360.282 132.76C360.123 132.442 359.872 132.217 359.527 132.084C359.182 131.925 358.732 131.846 358.175 131.846C357.671 131.846 357.247 131.952 356.903 132.164C356.585 132.376 356.346 132.76 356.187 133.317C356.028 133.847 355.948 134.603 355.948 135.583ZM371.024 148.148V126.717H377.028L378.738 129.699C379.374 128.824 380.103 128.055 380.925 127.393C381.773 126.73 382.794 126.399 383.986 126.399C384.198 126.399 384.45 126.412 384.742 126.438C385.033 126.465 385.312 126.518 385.577 126.597V134.51C385.126 134.457 384.662 134.417 384.185 134.391C383.735 134.364 383.324 134.351 382.953 134.351C382.316 134.351 381.733 134.417 381.203 134.55C380.673 134.656 380.196 134.828 379.772 135.067C379.374 135.305 379.029 135.623 378.738 136.021V148.148H371.024ZM394.63 158.088C393.331 158.088 392.152 157.89 391.091 157.492C390.031 157.094 389.183 156.511 388.547 155.743C387.937 155 387.632 154.099 387.632 153.039V152.601C387.632 151.515 387.95 150.574 388.586 149.778C389.249 148.983 390.097 148.373 391.131 147.949C392.165 147.499 393.278 147.273 394.471 147.273L396.896 149.5C396.446 149.5 396.075 149.566 395.783 149.699C395.492 149.831 395.28 150.004 395.147 150.216C395.014 150.454 394.948 150.719 394.948 151.011V151.21C394.948 151.634 395.094 151.992 395.386 152.283C395.704 152.601 396.207 152.76 396.896 152.76H400.395C400.979 152.76 401.456 152.641 401.827 152.403C402.198 152.164 402.384 151.819 402.384 151.369V150.892C402.384 150.574 402.291 150.308 402.105 150.096C401.946 149.911 401.721 149.765 401.429 149.659C401.138 149.553 400.793 149.5 400.395 149.5H396.737C393.875 149.5 391.781 148.996 390.455 147.989C389.156 146.955 388.507 145.723 388.507 144.291C388.507 143.204 388.812 142.263 389.421 141.468C390.031 140.673 390.879 140.143 391.966 139.878C391.224 139.401 390.614 138.844 390.137 138.208C389.686 137.572 389.355 136.882 389.143 136.14C388.931 135.398 388.825 134.616 388.825 133.794C388.825 132.257 389.143 130.971 389.779 129.937C390.415 128.877 391.409 128.082 392.761 127.552C394.14 126.995 395.942 126.717 398.169 126.717H409.859V130.931L407.592 131.647C407.778 131.912 407.924 132.23 408.03 132.601C408.162 132.946 408.255 133.357 408.308 133.834C408.388 134.285 408.427 134.815 408.427 135.424C408.427 136.75 408.149 137.903 407.592 138.884C407.062 139.864 406.227 140.633 405.087 141.19C403.948 141.72 402.45 141.985 400.594 141.985H396.539C396.114 141.985 395.743 142.065 395.425 142.224C395.107 142.356 394.948 142.595 394.948 142.939C394.948 143.284 395.107 143.509 395.425 143.615C395.743 143.721 396.114 143.774 396.539 143.774H401.708C403.325 143.774 404.729 143.986 405.922 144.41C407.115 144.835 408.043 145.55 408.706 146.558C409.368 147.538 409.7 148.877 409.7 150.574V150.931C409.7 153.158 409.024 154.908 407.672 156.18C406.346 157.452 404.239 158.088 401.35 158.088H394.63ZM397.533 136.259H399.72C400.17 136.259 400.528 136.193 400.793 136.061C401.058 135.928 401.244 135.716 401.35 135.424C401.456 135.133 401.509 134.762 401.509 134.311C401.509 133.86 401.456 133.503 401.35 133.238C401.244 132.946 401.058 132.747 400.793 132.641C400.528 132.509 400.17 132.442 399.72 132.442H397.533C396.87 132.442 396.406 132.588 396.141 132.88C395.876 133.145 395.743 133.622 395.743 134.311C395.743 134.974 395.876 135.464 396.141 135.782C396.406 136.1 396.87 136.259 397.533 136.259ZM420.313 157.572L422.381 148.148C420.844 148.148 419.558 147.883 418.524 147.353C417.517 146.796 416.722 146.054 416.139 145.126C415.555 144.198 415.131 143.138 414.866 141.945L411.566 126.717H419.558L421.983 140.395C422.036 140.713 422.116 140.978 422.222 141.19C422.355 141.375 422.5 141.521 422.659 141.627C422.845 141.733 423.017 141.813 423.176 141.866C423.362 141.919 423.534 141.945 423.693 141.945L426.437 126.717H434.27L428.822 153.635L426.834 157.572H420.313ZM456.572 148.387C455.221 148.387 453.975 148.214 452.835 147.87C451.695 147.499 450.714 146.902 449.893 146.08C449.071 145.259 448.435 144.159 447.984 142.78C447.533 141.375 447.308 139.639 447.308 137.572C447.308 135.398 447.507 133.595 447.904 132.164C448.329 130.706 448.938 129.553 449.733 128.705C450.529 127.856 451.523 127.26 452.716 126.915C453.908 126.544 455.274 126.359 456.811 126.359C458.242 126.359 459.528 126.452 460.668 126.637C461.834 126.823 463.12 127.141 464.525 127.591V132.005H459.316C458.176 132.005 457.288 132.164 456.652 132.482C456.042 132.774 455.618 133.317 455.38 134.112C455.141 134.881 455.022 135.994 455.022 137.452C455.022 138.937 455.128 140.05 455.34 140.792C455.578 141.534 456.003 142.025 456.612 142.263C457.248 142.502 458.176 142.621 459.396 142.621H464.803V146.955C464.14 147.22 463.332 147.472 462.378 147.711C461.45 147.923 460.482 148.082 459.475 148.188C458.468 148.32 457.5 148.387 456.572 148.387ZM477.814 148.347C475.906 148.347 474.289 148.148 472.963 147.75C471.665 147.353 470.618 146.717 469.822 145.842C469.027 144.967 468.457 143.841 468.113 142.462C467.768 141.057 467.596 139.361 467.596 137.373C467.596 135.226 467.768 133.45 468.113 132.045C468.484 130.613 469.067 129.487 469.862 128.665C470.657 127.817 471.704 127.22 473.003 126.876C474.329 126.531 475.932 126.359 477.814 126.359C479.723 126.359 481.327 126.544 482.626 126.915C483.951 127.287 484.998 127.896 485.767 128.744C486.562 129.566 487.132 130.693 487.476 132.124C487.848 133.529 488.033 135.279 488.033 137.373C488.033 139.44 487.861 141.177 487.516 142.581C487.198 143.986 486.641 145.113 485.846 145.961C485.077 146.809 484.03 147.419 482.705 147.79C481.406 148.161 479.776 148.347 477.814 148.347ZM477.814 142.224C478.318 142.224 478.729 142.184 479.047 142.104C479.365 141.998 479.617 141.786 479.802 141.468C479.988 141.15 480.121 140.66 480.2 139.997C480.28 139.334 480.319 138.446 480.319 137.333C480.319 136.22 480.28 135.345 480.2 134.709C480.121 134.046 479.988 133.556 479.802 133.238C479.617 132.919 479.365 132.721 479.047 132.641C478.729 132.535 478.318 132.482 477.814 132.482C477.311 132.482 476.9 132.535 476.582 132.641C476.264 132.721 476.012 132.919 475.826 133.238C475.641 133.556 475.508 134.046 475.429 134.709C475.349 135.345 475.309 136.22 475.309 137.333C475.309 138.446 475.349 139.334 475.429 139.997C475.508 140.66 475.641 141.15 475.826 141.468C476.012 141.786 476.264 141.998 476.582 142.104C476.9 142.184 477.311 142.224 477.814 142.224ZM497.664 148.387C495.809 148.387 494.351 147.803 493.29 146.637C492.23 145.444 491.7 143.88 491.7 141.945V126.717H499.414V139.52C499.414 140.342 499.612 140.898 500.01 141.19C500.408 141.455 500.911 141.587 501.521 141.587C501.919 141.587 502.422 141.468 503.032 141.23C503.668 140.991 504.132 140.699 504.423 140.355V126.717H512.137V148.148H505.696L504.423 146.08C503.522 146.664 502.488 147.194 501.322 147.671C500.182 148.148 498.963 148.387 497.664 148.387ZM516.416 148.148V126.717H522.857L524.13 128.784C524.792 128.175 525.68 127.618 526.794 127.114C527.907 126.611 529.034 126.359 530.173 126.359C532.029 126.359 533.434 126.717 534.388 127.432C535.342 128.122 535.992 129.076 536.336 130.295C536.681 131.488 536.853 132.827 536.853 134.311V148.148H529.14V135.345C529.14 134.788 529.047 134.364 528.861 134.073C528.676 133.781 528.424 133.582 528.106 133.476C527.814 133.344 527.456 133.277 527.032 133.277C526.688 133.277 526.33 133.33 525.959 133.436C525.588 133.542 525.243 133.688 524.925 133.874C524.633 134.059 524.368 134.271 524.13 134.51V148.148H516.416ZM549.919 148.148C548.09 148.148 546.619 147.91 545.506 147.432C544.419 146.929 543.637 146.094 543.16 144.927C542.709 143.735 542.51 142.118 542.563 140.077L542.802 132.84H539.502V127.91L543.12 126.717L544.074 120.713H550.198V126.717H554.532V132.84H550.198V140.037C550.198 140.381 550.224 140.686 550.277 140.951C550.33 141.19 550.41 141.402 550.516 141.587C550.648 141.746 550.807 141.879 550.993 141.985C551.178 142.065 551.39 142.118 551.629 142.144L554.373 142.422V148.148H549.919Z" fill="black"/>
<path d="M568.947 108.442C567.575 108.442 566.472 108.263 565.637 107.905C564.821 107.528 564.235 106.901 563.877 106.027C563.539 105.132 563.39 103.919 563.43 102.388L563.609 96.9609H561.134V93.2631L563.847 92.3685L564.563 87.8655H569.155V92.3685H572.406V96.9609H569.155V102.359C569.155 102.617 569.175 102.846 569.215 103.044C569.255 103.223 569.315 103.382 569.394 103.522C569.493 103.641 569.613 103.74 569.752 103.82C569.891 103.879 570.05 103.919 570.229 103.939L572.287 104.148V108.442H568.947ZM574.324 108.442V92.3685H579.155L580.109 93.9192C580.746 93.4221 581.421 92.9947 582.137 92.6368C582.873 92.279 583.847 92.1001 585.06 92.1001C586.054 92.1001 586.869 92.3088 587.505 92.7263C588.161 93.1239 588.658 93.6408 588.996 94.277C589.414 93.9589 589.891 93.6309 590.427 93.2929C590.964 92.9549 591.541 92.6766 592.157 92.4579C592.793 92.2194 593.429 92.1001 594.066 92.1001C595.437 92.1001 596.491 92.3486 597.227 92.8456C597.982 93.3227 598.499 94.0285 598.777 94.9629C599.056 95.8774 599.195 96.9907 599.195 98.3029V108.442H593.41V98.8396C593.41 98.4221 593.34 98.104 593.201 97.8854C593.062 97.6667 592.873 97.5176 592.634 97.438C592.416 97.3386 592.147 97.2889 591.829 97.2889C591.431 97.2889 591.034 97.3784 590.636 97.5573C590.239 97.7363 589.911 97.9549 589.652 98.2134C589.652 98.3327 589.652 98.4619 589.652 98.6011C589.652 98.7203 589.652 98.8396 589.652 98.9589V108.442H583.867V98.8396C583.867 98.4221 583.797 98.104 583.658 97.8854C583.519 97.6667 583.33 97.5176 583.091 97.438C582.873 97.3386 582.604 97.2889 582.286 97.2889C582.028 97.2889 581.759 97.3287 581.481 97.4082C581.203 97.4877 580.944 97.5971 580.706 97.7363C580.487 97.8754 580.288 98.0345 580.109 98.2134V108.442H574.324Z" fill="black"/>
</svg>
